<svg width="39" height="50" viewBox="0 0 39 50" fill="none" xmlns="http://www.w3.org/2000/svg">
<g clip-path="url(#clip0_414_1161)">
<path fill-rule="evenodd" clip-rule="evenodd" d="M30.4569 46.217V41.9045H34.0689C36.8013 41.9045 38.7696 39.6915 38.7696 37.3014V22.8059C38.7696 20.4133 36.7603 18.1893 34.0765 18.1893H30.4569V16.5071C35.6385 15.5142 34.5874 8.18487 29.3785 8.59064C30.8302 5.58204 27.3915 2.02325 23.9414 3.93673C22.7485 -1.14501 15.4566 -1.51288 14.0675 4.04181C12.3033 3.13292 10.0534 3.69171 8.85689 5.242C5.4107 2.80841 1.9856 6.6631 2.90435 8.89425C-1.09369 9.99591 -0.905707 15.5403 3.10875 16.6419L3.10875 46.6818C3.10875 51.1247 30.4569 51.2391 30.4569 46.217V46.217ZM6.72642 44.0154C6.59024 43.937 6.47714 43.824 6.3985 43.6879C6.31986 43.5518 6.27846 43.3974 6.27847 43.2402L6.27847 17.3987L4.29361 16.8929L4.29361 46.8411C9.87671 49.6242 25.4635 49.4769 29.2726 46.3539V42.2066C29.2726 41.398 29.9173 40.7204 30.7897 40.7204H34.0756C36.0302 40.7204 37.5084 39.0663 37.5084 37.3013V22.8059C37.5084 20.9579 36.0045 19.3735 34.0765 19.3735H30.759C29.9394 19.3735 29.2726 18.7067 29.2726 17.8871V16.8319C28.6402 17.0638 27.9995 17.2723 27.3517 17.4568L27.3492 42.8841C27.3491 43.0332 27.3117 43.1799 27.2404 43.3107C27.169 43.4416 27.066 43.5525 26.9407 43.6333C21.6628 46.686 11.8214 46.3189 6.72632 44.0154H6.72642ZM30.2623 15.3392C34.7136 14.2933 32.3828 8.28487 28.4787 10.1077C28.0083 10.4017 27.3488 9.84737 27.6888 9.27306C28.4839 7.89874 28.9246 6.90724 28.0983 5.74132C27.2575 4.5548 25.4543 3.97862 23.9266 5.44103C23.4872 5.87237 22.8977 5.56603 22.8815 5.05333C22.7094 -0.0836816 15.2594 -0.0423729 15.1501 5.05333C15.1477 5.52862 14.6181 5.89454 14.083 5.4547C12.4687 4.15772 10.2478 4.92814 9.55709 6.35626C9.38111 6.70724 8.94429 6.78273 8.64332 6.54523C5.58834 3.96983 3.05787 7.74737 4.2898 8.87999C4.38308 8.95679 4.45054 9.06036 4.48309 9.17671C4.51563 9.29307 4.51169 9.41661 4.47179 9.53066C4.4319 9.6447 4.35797 9.74376 4.25999 9.81446C4.16201 9.88515 4.04469 9.92408 3.92388 9.92599C0.561578 10.2653 -0.402484 15.1668 4.90513 15.8482C6.40504 16.2525 12.5504 17.7251 19.0017 17.5118C19.8025 17.5482 19.2875 18.2243 20.6448 19.285C21.4929 19.7744 21.8554 20.433 21.8743 21.208C21.8679 23.0443 24.9918 23.1738 24.7009 21.0693C24.6336 20.093 24.8421 19.1173 25.3027 18.2538C25.8525 17.3155 25.4072 16.8282 26.1087 16.5648C29.0594 15.8268 28.5658 15.6473 30.2623 15.3392V15.3392ZM11.0457 41.5751L11.0457 20.1525C11.0457 18.8394 9.07183 18.8394 9.07183 20.1525L9.07183 41.5751C9.07183 42.9014 11.0457 42.9014 11.0457 41.5751ZM33.8305 38.2013H30.9826C30.0354 38.2013 29.2726 37.4138 29.2726 36.4913V23.4821C29.2726 22.624 30.0354 21.7721 30.9826 21.7721H33.8305C34.8276 21.7721 35.5406 22.6516 35.5406 23.482V36.4912C35.5406 37.4964 34.6348 38.2012 33.8305 38.2012V38.2013ZM34.3563 36.4913V23.4821C34.3563 23.1922 34.1163 22.9564 33.8305 22.9564H30.9826C30.7041 22.9597 30.4677 23.1616 30.4569 23.4821V36.4912C30.46 36.7574 30.6645 37.017 30.9826 37.017H33.8305C34.1115 37.017 34.3559 36.7883 34.3563 36.4912V36.4913Z" fill="#7B8F80"/>
</g>
<defs>
<clipPath id="clip0_414_1161">
<rect width="38.77" height="50" fill="white"/>
</clipPath>
</defs>
</svg>
