<svg width="39" height="40" viewBox="0 0 39 40" fill="none" xmlns="http://www.w3.org/2000/svg">
<path d="M29.375 0.6875V6.9375C26.4875 6.9375 23.7297 7.45625 21.1469 8.35937L20.3234 6.56563L21.7328 5.93594L20.4641 3.07969L14.7578 5.61875L16.0266 8.475L17.4672 7.83437L18.2672 9.5625C16.5703 10.4154 14.9753 11.4575 13.5125 12.6688L12.2844 11.3625L13.4203 10.3187L11.3094 8.0125L6.70625 12.2422L8.81875 14.5484L9.97812 13.4797L11.2359 14.8047C9.73426 16.3972 8.44922 18.1808 7.41406 20.1094L5.72344 19.2734L6.42656 17.8938L3.64219 16.4766L0.810936 22.05L3.59375 23.4656L4.30781 22.0563L6.09687 22.9469C5.17113 25.3239 4.61672 27.8293 4.45312 30.375H1.25V39.75H38.75V0.6875H29.375ZM32.5 3.8125H35.625V30.375H7.57812C8.37969 19.0109 17.8047 10.0625 29.375 10.0625H32.5V3.8125ZM23.125 14.6766C22.4363 14.6761 21.7666 14.903 21.2201 15.3222C20.6736 15.7413 20.2808 16.3292 20.1027 16.9945C19.9245 17.6598 19.9711 18.3653 20.235 19.0015C20.499 19.6376 20.9657 20.1688 21.5625 20.5125V27.25H29.375V24.125H24.6875V20.5063C25.2841 20.1632 25.7506 19.6325 26.0144 18.9969C26.2783 18.3613 26.3247 17.6563 26.1465 16.9916C25.9683 16.3268 25.5754 15.7396 25.029 15.3212C24.4826 14.9029 23.8132 14.6768 23.125 14.6781V14.6766ZM4.375 33.5H35.625V36.625H4.375V33.5Z" fill="#5A7360"/>
</svg>
