<svg width="38" height="38" viewBox="0 0 38 38" fill="none" xmlns="http://www.w3.org/2000/svg">
<path d="M30.2083 0L4.16667 0C1.875 0 0 1.875 0 4.16667L0 16.0625C0 24.0417 6.14583 31.0208 14.125 31.25C22.375 31.5 29.1667 24.875 29.1667 16.6667V14.5833H30.2083C34.2292 14.5833 37.5 11.3125 37.5 7.29167C37.5 3.27083 34.2292 0 30.2083 0ZM25 4.16667V10.4167L4.16667 10.4167L4.16667 4.16667L25 4.16667ZM25 14.5833V16.6667C25 22.4167 20.3333 27.0833 14.5833 27.0833C8.83333 27.0833 4.16667 22.4167 4.16667 16.6667V14.5833L25 14.5833ZM30.2083 10.4167H29.1667V4.16667H30.2083C31.9375 4.16667 33.3333 5.5625 33.3333 7.29167C33.3333 9.02083 31.9375 10.4167 30.2083 10.4167ZM0 33.3333H33.3333V37.5H0L0 33.3333Z" fill="#7B8F80"/>
</svg>
