<svg width="50" height="50" viewBox="0 0 50 50" fill="none" xmlns="http://www.w3.org/2000/svg">
<path d="M6.25 17.2158V17.1877C6.24996 14.4098 7.07268 11.694 8.61437 9.38317C10.1561 7.07229 12.3476 5.26979 14.9126 4.20309C17.4776 3.13638 20.301 2.85326 23.0267 3.38944C25.7525 3.92562 28.2583 5.25707 30.2281 7.21583C31.778 6.45087 33.5092 6.12924 35.2304 6.28648C36.9515 6.44372 38.5958 7.07371 39.9814 8.10685C41.367 9.13998 42.44 10.536 43.0819 12.1408C43.7238 13.7455 43.9096 15.4965 43.6188 17.2002C44.0464 17.2399 44.4612 17.3673 44.8374 17.5744C45.2136 17.7816 45.543 18.0641 45.8052 18.4042C46.0673 18.7444 46.2565 19.1349 46.361 19.5514C46.4655 19.968 46.4831 20.4016 46.4125 20.8252C45 29.3221 41.5063 34.7002 35.9375 36.9627V39.0627C35.9375 40.3059 35.4436 41.4982 34.5646 42.3773C33.6855 43.2563 32.4932 43.7502 31.25 43.7502H18.75C17.5068 43.7502 16.3145 43.2563 15.4354 42.3773C14.5564 41.4982 14.0625 40.3059 14.0625 39.0627L14.0625 36.9627C8.49375 34.7002 5 29.3221 3.5875 20.8252C3.51933 20.4128 3.53457 19.991 3.63233 19.5846C3.73008 19.1783 3.90836 18.7956 4.15661 18.4594C4.40486 18.1231 4.71804 17.8401 5.07761 17.6271C5.43718 17.414 5.83585 17.2752 6.25 17.219V17.2158ZM9.375 17.1877H12.5C12.5 15.1157 13.3231 13.1286 14.7882 11.6634C16.2534 10.1983 18.2405 9.37521 20.3125 9.37521C22.3845 9.37521 24.3716 10.1983 25.8368 11.6634C27.3019 13.1286 28.125 15.1157 28.125 17.1877H31.25C31.25 14.2869 30.0977 11.5049 28.0465 9.45373C25.9953 7.40255 23.2133 6.25021 20.3125 6.25021C17.4117 6.25021 14.6297 7.40255 12.5785 9.45373C10.5273 11.5049 9.375 14.2869 9.375 17.1877V17.1877ZM15.625 17.1877H25C25 15.9445 24.5061 14.7522 23.6271 13.8731C22.748 12.9941 21.5557 12.5002 20.3125 12.5002C19.0693 12.5002 17.877 12.9941 16.9979 13.8731C16.1189 14.7522 15.625 15.9445 15.625 17.1877ZM37.0813 17.1877L40.4281 17.1877C40.664 16.2642 40.686 15.299 40.4924 14.3657C40.2988 13.4324 39.8947 12.5556 39.3109 11.8021C38.7271 11.0486 37.979 10.4383 37.1237 10.0177C36.2683 9.59718 35.3282 9.37742 34.375 9.37521C33.625 9.37521 32.9125 9.50646 32.25 9.74708C32.8031 10.6346 33.2594 11.5908 33.6094 12.594C34.2046 12.4463 34.83 12.4767 35.4081 12.6814C35.9862 12.886 36.4915 13.2559 36.8612 13.7451C37.231 14.2344 37.4489 14.8214 37.488 15.4334C37.5272 16.0454 37.3857 16.6554 37.0813 17.1877V17.1877ZM32.8125 37.5002H17.1875V39.0627C17.1875 39.4771 17.3521 39.8745 17.6451 40.1676C17.9382 40.4606 18.3356 40.6252 18.75 40.6252H31.25C31.6644 40.6252 32.0618 40.4606 32.3549 40.1676C32.6479 39.8745 32.8125 39.4771 32.8125 39.0627V37.5002ZM16.0875 34.3752H33.9125C38.8688 32.7815 42.0063 28.2752 43.3313 20.3127L6.66875 20.3127C7.99375 28.2752 11.1312 32.7815 16.0875 34.3752Z" fill="#7B8F80"/>
</svg>
