<svg width="70" height="107" viewBox="0 0 70 107" fill="none" xmlns="http://www.w3.org/2000/svg">
<path d="M34.8827 2.5C31.172 21.7347 24.3403 27.7874 3.62724 29.4428M3.62724 29.4428C3.38101 29.4625 3.13282 29.4815 2.88265 29.5C3.1321 29.4804 3.38029 29.4613 3.62724 29.4428ZM3.62724 29.4428C15.3048 28.5688 24.1872 28.9971 31.1282 31.6716M43.8827 4C41.227 18.1993 37.4043 26.7538 31.1282 31.6716M31.1282 31.6716C25.0327 36.4478 16.6231 37.7938 4.72052 37.5492M31.1282 31.6716C34.5209 32.9789 37.4498 34.823 40.0145 37.3139M4.72052 37.5492C4.11693 37.5368 3.50436 37.5203 2.88265 37.5C3.50521 37.5131 4.11777 37.5295 4.72052 37.5492ZM4.72052 37.5492C16.6848 37.9416 24.7836 39.6664 30.4614 43.4085M52.3827 8C49.7975 21.9943 46.0087 31.3575 40.0145 37.3139M40.0145 37.3139C37.3098 40.0015 34.1561 41.9956 30.4614 43.4085M40.0145 37.3139C45.462 42.605 49.2663 50.8148 52.3827 63M30.4614 43.4085C24.4289 45.7155 16.9541 46.4734 7.63648 46.1718M30.4614 43.4085C37.2197 47.8627 40.548 55.175 42.8827 66.5M7.63648 46.1718C6.41707 46.1323 5.16609 46.0747 3.88265 46C5.1891 46.0357 6.43909 46.0915 7.63648 46.1718ZM7.63648 46.1718C22.1573 47.145 28.9432 51.7105 34.8827 67.5M26.3826 3.5C-3.11735 11 -8.61735 55 25.3826 67M32.8827 2C77.3484 3.34149 81.9844 64.0947 32.8827 68.5" stroke="#5A7360" stroke-width="4"/>
<path d="M17.326 98L12.134 91.18V98H8.37203V82.556H12.134V89.332L17.282 82.556H21.704L15.72 90.124L21.924 98H17.326ZM28.3219 98.112C27.2659 98.112 26.2952 97.8667 25.4099 97.376C24.5352 96.8853 23.8365 96.2027 23.3139 95.328C22.8019 94.4427 22.5459 93.4507 22.5459 92.352C22.5459 91.2533 22.8019 90.2667 23.3139 89.392C23.8365 88.5173 24.5352 87.8347 25.4099 87.344C26.2952 86.8533 27.2659 86.608 28.3219 86.608C29.3779 86.608 30.3432 86.8533 31.2179 87.344C32.1032 87.8347 32.7965 88.5173 33.2979 89.392C33.8099 90.2667 34.0659 91.2533 34.0659 92.352C34.0659 93.4507 33.8099 94.4427 33.2979 95.328C32.7859 96.2027 32.0925 96.8853 31.2179 97.376C30.3432 97.8667 29.3779 98.112 28.3219 98.112ZM28.3219 95.616C29.2179 95.616 29.9325 95.3173 30.4659 94.72C31.0099 94.1227 31.2819 93.3333 31.2819 92.352C31.2819 91.36 31.0099 90.5707 30.4659 89.984C29.9325 89.3867 29.2179 89.088 28.3219 89.088C27.4152 89.088 26.6899 89.3813 26.1459 89.968C25.6125 90.5547 25.3459 91.3493 25.3459 92.352C25.3459 93.344 25.6125 94.1387 26.1459 94.736C26.6899 95.3227 27.4152 95.616 28.3219 95.616ZM49.536 98H45.774L39.482 88.474V98H35.72V82.556H39.482L45.774 92.126V82.556H49.536V98ZM58.553 96.016H54.361L53.689 98H50.825L54.889 86.768H58.057L62.121 98H59.225L58.553 96.016ZM57.849 93.904L56.457 89.792L55.081 93.904H57.849Z" fill="#5A7360"/>
<path d="M23.008 85H34.008" stroke="#5A7360" stroke-width="2"/>
<path d="M51.008 85H62.008" stroke="#5A7360" stroke-width="2"/>
</svg>
