<svg width="50" height="50" viewBox="0 0 50 50" fill="none" xmlns="http://www.w3.org/2000/svg">
<path d="M42.3828 35.7423H38.9502C38.7158 35.7423 38.4961 35.8448 38.3496 36.0255C38.0078 36.4405 37.6416 36.8409 37.2558 37.2218C35.6782 38.801 33.8094 40.0596 31.7529 40.9278C29.6223 41.8277 27.3324 42.2894 25.0195 42.2852C22.6807 42.2852 20.415 41.8262 18.2861 40.9278C16.2296 40.0596 14.3609 38.801 12.7832 37.2218C11.2027 35.6478 9.94245 33.7823 9.07225 31.7286C8.16893 29.5997 7.71483 27.3389 7.71483 25.0001C7.71483 22.6612 8.17382 20.4005 9.07225 18.2716C9.94139 16.2159 11.1914 14.3653 12.7832 12.7784C14.375 11.1915 16.2256 9.94148 18.2861 9.07234C20.415 8.1739 22.6807 7.71492 25.0195 7.71492C27.3584 7.71492 29.624 8.16902 31.7529 9.07234C33.8135 9.94148 35.664 11.1915 37.2558 12.7784C37.6416 13.1641 38.0029 13.5645 38.3496 13.9747C38.4961 14.1553 38.7207 14.2579 38.9502 14.2579H42.3828C42.6904 14.2579 42.8808 13.9161 42.7099 13.6573C38.9648 7.83699 32.4121 3.98445 24.9658 4.00398C13.2666 4.03328 3.88671 13.5303 4.00389 25.2149C4.12108 36.7139 13.4863 45.9962 25.0195 45.9962C32.4463 45.9962 38.9697 42.1485 42.7099 36.3428C42.876 36.0841 42.6904 35.7423 42.3828 35.7423ZM46.7236 24.6925L39.7949 19.2237C39.5361 19.0186 39.1601 19.2042 39.1601 19.5313V23.2423H23.8281C23.6133 23.2423 23.4375 23.418 23.4375 23.6329V26.3673C23.4375 26.5821 23.6133 26.7579 23.8281 26.7579H39.1601V30.4688C39.1601 30.796 39.541 30.9815 39.7949 30.7764L46.7236 25.3077C46.7703 25.2712 46.8081 25.2245 46.834 25.1712C46.86 25.1179 46.8735 25.0594 46.8735 25.0001C46.8735 24.9408 46.86 24.8823 46.834 24.829C46.8081 24.7757 46.7703 24.729 46.7236 24.6925Z" fill="#5A7360"/>
</svg>
