<svg width="30" height="46" viewBox="0 0 30 46" fill="none" xmlns="http://www.w3.org/2000/svg">
<path d="M2.5 18.3893C2.5 17.9988 2.60973 17.6162 2.81667 17.2851L7.70833 9.45801L22.2917 9.45801L27.1833 17.2851C27.3903 17.6162 27.5 17.9988 27.5 18.3893L27.5 41.7497C27.5 42.3022 27.2805 42.8321 26.8898 43.2228C26.4991 43.6135 25.9692 43.833 25.4167 43.833H4.58333C4.0308 43.833 3.5009 43.6135 3.11019 43.2228C2.71949 42.8321 2.5 42.3022 2.5 41.7497L2.5 18.3893Z" stroke="#7B8F80" stroke-width="4.16667" stroke-linecap="round" stroke-linejoin="round"/>
<path d="M9.79168 32.3748V22.9998L15 29.2498L20.2083 22.9998V32.3748H9.79168ZM7.70834 2.1665L22.2917 2.1665V9.45817H7.70834L7.70834 2.1665Z" stroke="#7B8F80" stroke-width="4.16667" stroke-linecap="round" stroke-linejoin="round"/>
</svg>
