<svg width="50" height="50" viewBox="0 0 50 50" fill="none" xmlns="http://www.w3.org/2000/svg">
<path d="M43.4 9.48958C43.6094 9.17583 43.7296 8.81114 43.7479 8.43441C43.7662 8.05768 43.6819 7.68305 43.5039 7.35049C43.326 7.01793 43.0611 6.73991 42.7375 6.5461C42.414 6.35228 42.0439 6.24994 41.6667 6.25L8.33336 6.25C7.95651 6.25019 7.58678 6.3526 7.26354 6.54631C6.94029 6.74002 6.67564 7.01777 6.49777 7.35C6.3199 7.68222 6.23547 8.05647 6.25348 8.43288C6.27149 8.80929 6.39125 9.17377 6.60002 9.4875L22.9167 33.9646V41.6667H16.6667V45.8333H33.3334V41.6667H27.0834V33.9646L43.4 9.48958V9.48958ZM25 29.5771L17.7813 18.75H32.2188L25 29.5771ZM37.775 10.4167L34.9979 14.5833L15.0021 14.5833L12.225 10.4167L37.775 10.4167V10.4167Z" fill="#7B8F80"/>
</svg>
