<svg width="50" height="51" viewBox="0 0 50 51" fill="none" xmlns="http://www.w3.org/2000/svg">
<path d="M15.625 28.625H28.125V31.75H15.625V28.625ZM15.625 20.8125H34.375V23.9375H15.625V20.8125ZM15.625 36.4375H23.4375V39.5625H15.625V36.4375Z" fill="#353535" fill-opacity="0.6"/>
<path d="M39.0625 8.3125H34.375V6.75C34.375 5.9212 34.0458 5.12634 33.4597 4.54029C32.8737 3.95424 32.0788 3.625 31.25 3.625H18.75C17.9212 3.625 17.1263 3.95424 16.5403 4.54029C15.9542 5.12634 15.625 5.9212 15.625 6.75V8.3125H10.9375C10.1087 8.3125 9.31384 8.64174 8.72779 9.22779C8.14174 9.81384 7.8125 10.6087 7.8125 11.4375V44.25C7.8125 45.0788 8.14174 45.8737 8.72779 46.4597C9.31384 47.0458 10.1087 47.375 10.9375 47.375H39.0625C39.8913 47.375 40.6862 47.0458 41.2722 46.4597C41.8583 45.8737 42.1875 45.0788 42.1875 44.25V11.4375C42.1875 10.6087 41.8583 9.81384 41.2722 9.22779C40.6862 8.64174 39.8913 8.3125 39.0625 8.3125V8.3125ZM18.75 6.75H31.25V13H18.75V6.75ZM39.0625 44.25H10.9375V11.4375H15.625V16.125H34.375V11.4375H39.0625V44.25Z" fill="#5A7360"/>
</svg>
