<svg width="50" height="50" viewBox="0 0 50 50" fill="none" xmlns="http://www.w3.org/2000/svg">
<path fill-rule="evenodd" clip-rule="evenodd" d="M12.5708 20.9863L10.0292 11.504L15.8646 6.0488L17.7083 12.9269V9.15609L25 6.92692V10.9821L31.3396 7.94775L31.2677 8.99984L32.5281 4.1665L39.9417 4.1665L37.0573 13.7811L38.8979 13.3103L36.6615 21.6582C36.8062 21.5175 36.9531 21.3759 37.099 21.2311C37.2968 21.0306 37.5525 20.8972 37.8301 20.8497C38.1077 20.8021 38.3932 20.8427 38.6465 20.9659C38.8998 21.089 39.1081 21.2885 39.2421 21.5361C39.3762 21.7838 39.4292 22.0673 39.3937 22.3467L36.6875 44.0082C36.6245 44.5121 36.3796 44.9757 35.9989 45.3118C35.6181 45.6479 35.1277 45.8333 34.6198 45.8332H15.3802C14.8725 45.833 14.3823 45.6475 14.0018 45.3114C13.6212 44.9754 13.3765 44.5119 13.3135 44.0082L10.6063 22.3519C10.576 22.1075 10.6131 21.8595 10.7135 21.6346C10.814 21.4097 10.974 21.2166 11.1763 21.0761C11.3786 20.9356 11.6154 20.8531 11.8612 20.8374C12.107 20.8218 12.3524 20.8736 12.5708 20.9873V20.9863ZM32.9073 17.4655L35.8656 16.578L33.824 24.1946C32.6635 25.1394 31.5562 25.9134 30.4833 26.5144L32.9073 17.4655V17.4655ZM27.9135 27.6415L29.0187 11.3675L26.3208 12.6582L25.2729 28.0853C26.1695 28.0614 27.0584 27.9121 27.9135 27.6415V27.6415ZM19.7917 26.6082C20.8615 27.1853 21.8969 27.5946 22.9167 27.8342V9.73942L19.7917 10.6957V26.6071V26.6082ZM15.4021 23.504C16.1434 24.139 16.9129 24.7403 17.7083 25.3061V20.9707L14.751 9.9415L12.3656 12.1717L15.4021 23.504V23.504ZM34.7021 14.3832L31.825 15.1186L34.1375 6.24984H37.1417L34.7021 14.3832Z" fill="#7B8F80"/>
</svg>
