<svg width="51" height="50" viewBox="0 0 51 50" fill="none" xmlns="http://www.w3.org/2000/svg">
<path d="M33.8333 2.0835C34.3858 2.0835 34.9157 2.30299 35.3064 2.69369C35.6971 3.08439 35.9166 3.61429 35.9166 4.16683V6.24808L46.3333 6.25016V18.7502L42.125 18.7481L47.8895 34.5731C48.2803 35.6312 48.4521 36.7576 48.3947 37.8841C48.3373 39.0106 48.0518 40.1137 47.5555 41.1266C47.0592 42.1395 46.3624 43.0411 45.5074 43.7767C44.6524 44.5124 43.6569 45.0669 42.5813 45.4065C41.5057 45.7461 40.3724 45.8638 39.2499 45.7525C38.1275 45.6412 37.0393 45.3032 36.0513 44.759C35.0634 44.2148 34.1962 43.4756 33.5023 42.5863C32.8084 41.6971 32.3023 40.6762 32.0145 39.5856H23.1541C22.6802 41.414 21.5995 43.0273 20.089 44.1613C18.5785 45.2953 16.7277 45.8828 14.8397 45.8276C12.9517 45.7724 11.1384 45.0778 9.69673 43.8575C8.25505 42.6372 7.27043 40.9635 6.90413 39.1106C6.22885 38.7586 5.66312 38.2281 5.26858 37.5768C4.87404 36.9254 4.66583 36.1783 4.66663 35.4168V8.3335C4.66663 7.78096 4.88612 7.25106 5.27682 6.86036C5.66752 6.46966 6.19743 6.25016 6.74996 6.25016H21.3333C21.8858 6.25016 22.4157 6.46966 22.8064 6.86036C23.1971 7.25106 23.4166 7.78096 23.4166 8.3335V25.0002C23.4167 25.5104 23.604 26.0029 23.9431 26.3843C24.2822 26.7656 24.7494 27.0092 25.2562 27.0689L25.5 27.0835H29.6666C30.1769 27.0834 30.6694 26.8961 31.0507 26.557C31.4321 26.2179 31.6757 25.7507 31.7354 25.2439L31.75 25.0002V6.25016H25.5V2.0835H33.8333ZM15.0833 33.3335C13.9782 33.3335 12.9184 33.7725 12.137 34.5539C11.3556 35.3353 10.9166 36.3951 10.9166 37.5002C10.9166 38.6052 11.3556 39.665 12.137 40.4464C12.9184 41.2278 13.9782 41.6668 15.0833 41.6668C16.1884 41.6668 17.2482 41.2278 18.0296 40.4464C18.811 39.665 19.25 38.6052 19.25 37.5002C19.25 36.3951 18.811 35.3353 18.0296 34.5539C17.2482 33.7725 16.1884 33.3335 15.0833 33.3335ZM40.0833 33.3314C38.9782 33.3314 37.9184 33.7704 37.137 34.5518C36.3556 35.3332 35.9166 36.393 35.9166 37.4981C35.9166 38.6031 36.3556 39.663 37.137 40.4444C37.9184 41.2258 38.9782 41.6647 40.0833 41.6647C41.1884 41.6647 42.2482 41.2258 43.0296 40.4444C43.811 39.663 44.25 38.6031 44.25 37.4981C44.25 36.393 43.811 35.3332 43.0296 34.5518C42.2482 33.7704 41.1884 33.3314 40.0833 33.3314V33.3314ZM37.6916 18.7481H35.9166V25.0002C35.9166 26.6578 35.2581 28.2475 34.086 29.4196C32.9139 30.5917 31.3242 31.2502 29.6666 31.2502H25.5C24.2074 31.2501 22.9466 30.8494 21.8911 30.1032C20.8356 29.357 20.0374 28.3021 19.6062 27.0835H8.83329V31.9877C9.83505 30.8533 11.1267 30.013 12.5696 29.5568C14.0126 29.1007 15.5526 29.0458 17.0243 29.3983C18.4961 29.7507 19.8442 30.497 20.924 31.5573C22.0039 32.6176 22.7748 33.9518 23.1541 35.4168H32.0125C32.5374 33.3851 33.8092 31.6261 35.574 30.4907C37.3388 29.3554 39.4668 28.9273 41.5333 29.2918L37.6916 18.7481ZM19.25 16.6668H8.83329V22.9168H19.25V16.6668ZM42.1666 10.4168H35.9166V14.5835H42.1666V10.4168ZM19.25 10.4168H8.83329V12.5002H19.25V10.4168Z" fill="white"/>
</svg>
