<svg width="50" height="50" viewBox="0 0 50 50" fill="none" xmlns="http://www.w3.org/2000/svg">
<path d="M42.6342 11.7188H34.375V6.25L3.125 6.25L3.125 39.8438C3.12686 41.5008 3.78594 43.0894 4.95764 44.2611C6.12934 45.4328 7.71797 46.0919 9.375 46.0938H28.125C29.782 46.0919 31.3707 45.4328 32.5424 44.2611C33.7141 43.0894 34.3731 41.5008 34.375 39.8438V39.0625H42.6342C44.1728 39.0608 45.6479 38.4488 46.7358 37.3608C47.8238 36.2729 48.4358 34.7978 48.4375 33.2592V17.5221C48.4358 15.9835 47.8238 14.5084 46.7358 13.4204C45.6479 12.3325 44.1728 11.7205 42.6342 11.7188V11.7188ZM15.7592 23.3295L18.75 26.3204V31.9232H12.5V26.3204L15.4909 23.3295H15.7592ZM45.3125 33.2592C45.3117 33.9693 45.0293 34.65 44.5272 35.1522C44.025 35.6543 43.3443 35.9367 42.6342 35.9375H31.25V39.8438C31.2491 40.6723 30.9195 41.4666 30.3337 42.0524C29.7478 42.6383 28.9535 42.9678 28.125 42.9688H9.375C8.54648 42.9678 7.75217 42.6383 7.16632 42.0524C6.58047 41.4666 6.25093 40.6723 6.25 39.8438L6.25 9.375H14.0625L14.0625 20.3385L9.375 25.026L9.375 35.0482H21.875L21.875 25.026L17.1875 20.3385V9.375L31.25 9.375V14.8438L42.6342 14.8438C43.3443 14.8446 44.025 15.127 44.5272 15.6291C45.0293 16.1312 45.3117 16.812 45.3125 17.5221V33.2592Z" fill="#7B8F80"/>
<path d="M40.625 17.5781H31.25V33.2031H40.625C41.1428 33.2025 41.6393 32.9966 42.0054 32.6304C42.3716 32.2643 42.5775 31.7678 42.5781 31.25V19.5312C42.5775 19.0134 42.3716 18.517 42.0054 18.1508C41.6393 17.7847 41.1428 17.5787 40.625 17.5781V17.5781ZM39.4531 30.0781H34.375V20.7031H39.4531V30.0781Z" fill="#7B8F80"/>
</svg>
